<svg width="68" height="26" viewBox="0 0 68 26" fill="none" xmlns="http://www.w3.org/2000/svg">
<path d="M1.12 19V7.48H7.944V9.152H2.792V12.4H6.984V14.08H2.792V19H1.12ZM12.9833 19.24C12.1246 19.24 11.3699 19.0533 10.7193 18.68C10.0739 18.3013 9.56992 17.776 9.20725 17.104C8.84992 16.4267 8.67125 15.6427 8.67125 14.752C8.67125 13.808 8.84725 12.9893 9.19925 12.296C9.55658 11.6027 10.0526 11.0667 10.6873 10.688C11.3219 10.3093 12.0606 10.12 12.9033 10.12C13.7833 10.12 14.5326 10.3253 15.1513 10.736C15.7699 11.1413 16.2313 11.72 16.5353 12.472C16.8446 13.224 16.9673 14.1173 16.9033 15.152H15.2313V14.544C15.2206 13.5413 15.0286 12.8 14.6553 12.32C14.2873 11.84 13.7246 11.6 12.9673 11.6C12.1299 11.6 11.5006 11.864 11.0793 12.392C10.6579 12.92 10.4473 13.6827 10.4473 14.68C10.4473 15.6293 10.6579 16.3653 11.0793 16.888C11.5006 17.4053 12.1086 17.664 12.9033 17.664C13.4259 17.664 13.8766 17.5467 14.2553 17.312C14.6393 17.072 14.9379 16.7307 15.1513 16.288L16.7913 16.808C16.4553 17.5813 15.9459 18.1813 15.2633 18.608C14.5806 19.0293 13.8206 19.24 12.9833 19.24ZM9.90325 15.152V13.848H16.0712V15.152H9.90325ZM20.9819 19.24C20.3419 19.24 19.8059 19.1227 19.3739 18.888C18.9419 18.648 18.6139 18.3333 18.3899 17.944C18.1712 17.5493 18.0619 17.1173 18.0619 16.648C18.0619 16.2107 18.1392 15.8267 18.2939 15.496C18.4485 15.1653 18.6779 14.8853 18.9819 14.656C19.2859 14.4213 19.6592 14.232 20.1019 14.088C20.4859 13.976 20.9205 13.8773 21.4059 13.792C21.8912 13.7067 22.4005 13.6267 22.9339 13.552C23.4725 13.4773 24.0059 13.4027 24.5339 13.328L23.9259 13.664C23.9365 12.9867 23.7925 12.4853 23.4939 12.16C23.2005 11.8293 22.6939 11.664 21.9739 11.664C21.5205 11.664 21.1045 11.7707 20.7259 11.984C20.3472 12.192 20.0832 12.5387 19.9339 13.024L18.3739 12.544C18.5872 11.8027 18.9925 11.2133 19.5899 10.776C20.1925 10.3387 20.9925 10.12 21.9899 10.12C22.7632 10.12 23.4352 10.2533 24.0059 10.52C24.5819 10.7813 25.0032 11.1973 25.2699 11.768C25.4085 12.0507 25.4939 12.3493 25.5259 12.664C25.5579 12.9787 25.5739 13.3173 25.5739 13.68V19H24.0939V17.024L24.3819 17.28C24.0245 17.9413 23.5685 18.4347 23.0139 18.76C22.4645 19.08 21.7872 19.24 20.9819 19.24ZM21.2779 17.872C21.7525 17.872 22.1605 17.7893 22.5019 17.624C22.8432 17.4533 23.1179 17.2373 23.3259 16.976C23.5339 16.7147 23.6699 16.4427 23.7339 16.16C23.8245 15.904 23.8752 15.616 23.8859 15.296C23.9019 14.976 23.9099 14.72 23.9099 14.528L24.4539 14.728C23.9259 14.808 23.4459 14.88 23.0139 14.944C22.5819 15.008 22.1899 15.072 21.8379 15.136C21.4912 15.1947 21.1819 15.2667 20.9099 15.352C20.6805 15.432 20.4752 15.528 20.2939 15.64C20.1179 15.752 19.9765 15.888 19.8699 16.048C19.7685 16.208 19.7179 16.4027 19.7179 16.632C19.7179 16.856 19.7739 17.064 19.8859 17.256C19.9979 17.4427 20.1685 17.592 20.3979 17.704C20.6272 17.816 20.9205 17.872 21.2779 17.872ZM32.5953 19C32.0513 19.1067 31.5179 19.152 30.9953 19.136C30.4726 19.12 30.0059 19.0187 29.5953 18.832C29.1846 18.6453 28.8753 18.352 28.6673 17.952C28.4806 17.5947 28.3793 17.232 28.3633 16.864C28.3526 16.4907 28.3473 16.0693 28.3473 15.6V7.96H30.0273V15.52C30.0273 15.8667 30.0299 16.168 30.0353 16.424C30.0459 16.68 30.1019 16.896 30.2033 17.072C30.3953 17.4027 30.6993 17.592 31.1153 17.64C31.5366 17.6827 32.0299 17.664 32.5953 17.584V19ZM26.6913 11.704V10.36H32.5953V11.704H26.6913ZM37.6729 19.232C37.0755 19.232 36.5742 19.136 36.1689 18.944C35.7635 18.752 35.4329 18.5013 35.1769 18.192C34.9262 17.8773 34.7342 17.536 34.6009 17.168C34.4675 16.8 34.3769 16.44 34.3289 16.088C34.2809 15.736 34.2569 15.4267 34.2569 15.16V10.36H35.9529V14.608C35.9529 14.944 35.9795 15.2907 36.0329 15.648C36.0915 16 36.1982 16.328 36.3529 16.632C36.5129 16.936 36.7342 17.1813 37.0169 17.368C37.3049 17.5547 37.6782 17.648 38.1369 17.648C38.4355 17.648 38.7182 17.6 38.9849 17.504C39.2515 17.4027 39.4835 17.2427 39.6809 17.024C39.8835 16.8053 40.0409 16.5173 40.1529 16.16C40.2702 15.8027 40.3289 15.368 40.3289 14.856L41.3689 15.248C41.3689 16.032 41.2222 16.7253 40.9289 17.328C40.6355 17.9253 40.2142 18.392 39.6649 18.728C39.1155 19.064 38.4515 19.232 37.6729 19.232ZM40.5289 19V16.504H40.3289V10.36H42.0169V19H40.5289ZM44.2606 19V10.36H45.7486V12.456L45.5406 12.184C45.6473 11.9067 45.786 11.6533 45.9566 11.424C46.1273 11.1893 46.3246 10.9973 46.5486 10.848C46.7673 10.688 47.01 10.5653 47.2766 10.48C47.5486 10.3893 47.826 10.336 48.1086 10.32C48.3913 10.2987 48.6633 10.312 48.9246 10.36V11.928C48.642 11.8533 48.3273 11.832 47.9806 11.864C47.6393 11.896 47.3246 12.0053 47.0366 12.192C46.7646 12.368 46.5486 12.5813 46.3886 12.832C46.234 13.0827 46.122 13.3627 46.0526 13.672C45.9833 13.976 45.9486 14.2987 45.9486 14.64V19H44.2606ZM54.1239 19.24C53.2652 19.24 52.5105 19.0533 51.8599 18.68C51.2145 18.3013 50.7105 17.776 50.3479 17.104C49.9905 16.4267 49.8119 15.6427 49.8119 14.752C49.8119 13.808 49.9879 12.9893 50.3399 12.296C50.6972 11.6027 51.1932 11.0667 51.8279 10.688C52.4625 10.3093 53.2012 10.12 54.0439 10.12C54.9239 10.12 55.6732 10.3253 56.2919 10.736C56.9105 11.1413 57.3719 11.72 57.6759 12.472C57.9852 13.224 58.1079 14.1173 58.0439 15.152H56.3719V14.544C56.3612 13.5413 56.1692 12.8 55.7959 12.32C55.4279 11.84 54.8652 11.6 54.1079 11.6C53.2705 11.6 52.6412 11.864 52.2199 12.392C51.7985 12.92 51.5879 13.6827 51.5879 14.68C51.5879 15.6293 51.7985 16.3653 52.2199 16.888C52.6412 17.4053 53.2492 17.664 54.0439 17.664C54.5665 17.664 55.0172 17.5467 55.3959 17.312C55.7799 17.072 56.0785 16.7307 56.2919 16.288L57.9319 16.808C57.5959 17.5813 57.0865 18.1813 56.4039 18.608C55.7212 19.0293 54.9612 19.24 54.1239 19.24ZM51.0439 15.152V13.848H57.2119V15.152H51.0439ZM63.1428 19.232C62.0921 19.232 61.2361 19 60.5748 18.536C59.9134 18.072 59.5081 17.4187 59.3588 16.576L61.0707 16.312C61.1774 16.76 61.4228 17.1147 61.8068 17.376C62.1961 17.632 62.6788 17.76 63.2548 17.76C63.7774 17.76 64.1854 17.6533 64.4788 17.44C64.7774 17.2267 64.9268 16.9333 64.9268 16.56C64.9268 16.3413 64.8734 16.1653 64.7668 16.032C64.6654 15.8933 64.4494 15.7627 64.1188 15.64C63.7881 15.5173 63.2841 15.3653 62.6068 15.184C61.8654 14.992 61.2761 14.7867 60.8388 14.568C60.4068 14.344 60.0974 14.0853 59.9108 13.792C59.7294 13.4933 59.6388 13.1333 59.6388 12.712C59.6388 12.1893 59.7774 11.7333 60.0548 11.344C60.3321 10.9547 60.7214 10.6533 61.2228 10.44C61.7294 10.2267 62.3214 10.12 62.9988 10.12C63.6601 10.12 64.2494 10.224 64.7668 10.432C65.2841 10.64 65.7028 10.936 66.0228 11.32C66.3428 11.6987 66.5348 12.144 66.5988 12.656L64.8868 12.968C64.8281 12.552 64.6334 12.224 64.3028 11.984C63.9721 11.744 63.5428 11.6133 63.0148 11.592C62.5081 11.5707 62.0974 11.656 61.7828 11.848C61.4681 12.0347 61.3108 12.2933 61.3108 12.624C61.3108 12.816 61.3694 12.9787 61.4868 13.112C61.6094 13.2453 61.8441 13.3733 62.1908 13.496C62.5374 13.6187 63.0494 13.7653 63.7268 13.936C64.4521 14.1227 65.0281 14.3307 65.4548 14.56C65.8814 14.784 66.1854 15.0533 66.3668 15.368C66.5534 15.6773 66.6468 16.0533 66.6468 16.496C66.6468 17.3493 66.3348 18.0187 65.7108 18.504C65.0921 18.9893 64.2361 19.232 63.1428 19.232Z" fill="#33354D"/>
</svg>
